<svg xmlns="http://www.w3.org/2000/svg" width="720" height="420" viewBox="0 0 720 420"><defs><linearGradient id="g" x1="0" y1="0" x2="1" y2="1"><stop stop-color="#0b1f48"/><stop offset="1" stop-color="#123f7c"/></linearGradient><filter id="s"><feDropShadow dx="0" dy="18" stdDeviation="18" flood-opacity=".35"/></filter></defs><rect width="720" height="420" rx="42" fill="url(#g)"/><g opacity=".18" fill="#fff"><circle cx="76" cy="72" r="6"/><circle cx="640" cy="88" r="4"/><circle cx="598" cy="336" r="8"/><path d="M0 330 250 160 720 350v70H0z"/></g><g filter="url(#s)"><rect x="116" y="86" width="488" height="248" rx="24" fill="#07111f" stroke="#6bb6ff" stroke-width="6"/><rect x="142" y="112" width="436" height="188" rx="12" fill="#dff3ff"/><path d="M306 334h108l23 34H283z" fill="#b8d9f0"/><rect x="248" y="366" width="224" height="14" rx="7" fill="#eaf7ff"/></g><g transform="translate(220 145)"><rect width="280" height="110" rx="20" fill="#fff" opacity=".95"/><circle cx="48" cy="55" r="27" fill="#e11d2e"/><path d="m41 40 22 15-22 15z" fill="#fff"/><text x="90" y="50" font-family="Arial" font-size="24" font-weight="700" fill="#0b1f48">START HERE</text><text x="90" y="78" font-family="Arial" font-size="18" fill="#46627f">Computer confidence</text></g></svg>
