<svg xmlns="http://www.w3.org/2000/svg" width="720" height="420" viewBox="0 0 720 420"><defs><linearGradient id="g" x1="0" y1="0" x2="1" y2="1"><stop stop-color="#071f18"/><stop offset="1" stop-color="#107c41"/></linearGradient><filter id="s"><feDropShadow dx="0" dy="18" stdDeviation="18" flood-opacity=".35"/></filter></defs><rect width="720" height="420" rx="42" fill="url(#g)"/><g opacity=".14" stroke="#fff"><path d="M0 84h720M0 168h720M0 252h720M0 336h720M120 0v420M240 0v420M360 0v420M480 0v420M600 0v420"/></g><g filter="url(#s)"><rect x="170" y="70" width="382" height="282" rx="28" fill="#f3fff8"/><rect x="130" y="118" width="150" height="164" rx="24" fill="#0b5f35"/><text x="176" y="226" font-family="Arial" font-size="92" font-weight="800" fill="#fff">X</text><g fill="#bfe6cf"><rect x="314" y="118" width="76" height="40" rx="8"/><rect x="404" y="118" width="106" height="40" rx="8"/><rect x="314" y="172" width="76" height="40" rx="8"/><rect x="404" y="172" width="106" height="40" rx="8"/><rect x="314" y="226" width="76" height="40" rx="8"/><rect x="404" y="226" width="106" height="40" rx="8"/></g><path d="m330 318 48-50 42 28 66-86" fill="none" stroke="#e11d2e" stroke-width="13" stroke-linecap="round" stroke-linejoin="round"/></g></svg>
