<svg xmlns="http://www.w3.org/2000/svg" width="720" height="420" viewBox="0 0 720 420"><defs><linearGradient id="g" x1="0" y1="0" x2="1" y2="1"><stop stop-color="#071f52"/><stop offset="1" stop-color="#185abd"/></linearGradient><filter id="s"><feDropShadow dx="0" dy="18" stdDeviation="18" flood-opacity=".35"/></filter></defs><rect width="720" height="420" rx="42" fill="url(#g)"/><g opacity=".15" fill="#fff"><circle cx="92" cy="82" r="8"/><circle cx="626" cy="75" r="5"/><path d="M0 350 285 145 720 345v75H0z"/></g><g filter="url(#s)"><rect x="188" y="60" width="344" height="300" rx="28" fill="#f7fbff"/><rect x="151" y="108" width="136" height="164" rx="24" fill="#103f91"/><text x="185" y="218" font-family="Arial" font-size="92" font-weight="800" fill="#fff">W</text><rect x="318" y="116" width="164" height="16" rx="8" fill="#bdd6f7"/><rect x="318" y="158" width="142" height="13" rx="6" fill="#d5e4f7"/><rect x="318" y="194" width="172" height="13" rx="6" fill="#d5e4f7"/><rect x="318" y="230" width="120" height="13" rx="6" fill="#d5e4f7"/><rect x="318" y="284" width="90" height="34" rx="17" fill="#e11d2e"/></g></svg>
